<?xml version="1.0" encoding="UTF-8" standalone="no"?>
<svg
   xmlns:dc="http://purl.org/dc/elements/1.1/"
   xmlns:cc="http://creativecommons.org/ns#"
   xmlns:rdf="http://www.w3.org/1999/02/22-rdf-syntax-ns#"
   xmlns:svg="http://www.w3.org/2000/svg"
   xmlns="http://www.w3.org/2000/svg"
   viewBox="0 0 109 24"
   version="1.1"
   id="svg4708">
  <metadata
     id="metadata4712">
    <rdf:RDF>
      <cc:Work
         rdf:about="">
        <dc:format>image/svg+xml</dc:format>
        <dc:type
           rdf:resource="http://purl.org/dc/dcmitype/StillImage" />
        <dc:title>Logo</dc:title>
      </cc:Work>
    </rdf:RDF>
  </metadata>
  <title
     id="title4685">Logo</title>
  <defs
     id="defs4706">
    <path
       id="b"
       d="M22.735 23.171c.283.323.053.829-.376.829h-5.907c-.285 0-.556-.121-.745-.333l-9.414-10.526v10.36c0 .276-.224.5-.5.5h-5.293c-.276 0-.5-.224-.5-.5v-23c0-.276.224-.5.5-.5h5.293c.276 0 .5.224.5.5v9.815l9.141-9.99c.19-.207.457-.325.738-.325h5.762c.437 0 .664.521.366.841l-9.851 10.563 10.287 11.767z" />
    <path
       id="c"
       d="M45.991 24c-.199 0-.38-.118-.459-.301l-2.024-4.669h-10.67l-2.024 4.669c-.079.183-.259.301-.459.301h-5.212c-.366 0-.608-.381-.453-.712l10.782-23c.082-.176.259-.288.453-.288h4.358c.194 0 .37.112.453.287l10.815 23c.156.332-.086.713-.452.713h-5.108zm-11.135-9.668h6.635l-3.317-7.694-3.317 7.694z" />
    <path
       id="d"
       d="M55.525 24c-.276 0-.5-.224-.5-.5v-23c0-.276.224-.5.5-.5h5.293c.276 0 .5.224.5.5v18.428h9.759c.276 0 .5.224.5.5v4.072c0 .276-.224.5-.5.5h-15.552z" />
    <path
       id="e"
       d="M75.279.5c0-.276.224-.5.5-.5h9.315c2.667 0 4.959.477 6.874 1.43 1.938.953 3.42 2.338 4.446 4.153 1.026 1.793 1.539 3.926 1.539 6.4 0 2.496-.513 4.652-1.539 6.468-1.003 1.793-2.474 3.166-4.412 4.119-1.915.953-4.218 1.43-6.908 1.43h-9.315c-.276 0-.5-.224-.5-.5v-23zm9.37 18.462c2.371 0 4.138-.579 5.301-1.736 1.163-1.157 1.744-2.905 1.744-5.242 0-2.338-.581-4.074-1.744-5.209-1.163-1.157-2.93-1.736-5.301-1.736h-3.078v13.923h3.078z" />
    <path
       id="f"
       d="M102.913 24c-.276 0-.5-.224-.5-.5v-23c0-.276.224-.5.5-.5h5.293c.276 0 .5.224.5.5v23c0 .276-.224.5-.5.5h-5.293z" />
  </defs>
  <g
     id="text4716"
     style="font-style:normal;font-weight:normal;font-size:40px;line-height:1.25;font-family:sans-serif;letter-spacing:0px;word-spacing:0px;fill:#ff4400;fill-opacity:1;stroke:none"
     aria-label="QALAM">
    <path
       id="path86"
       style="font-style:normal;font-variant:normal;font-weight:bold;font-stretch:normal;font-size:32px;font-family:'Tlwg Typewriter';-inkscape-font-specification:'Tlwg Typewriter Bold';fill:#ff4400;fill-opacity:1"
       d="m 15.809234,23.071671 q -0.864,0 -2.88,0.416 -1.984,0.416 -2.048,0.416 -0.608,0 -1.088,-0.512 -0.448,-0.48 -0.448,-1.152 0,-0.608 0.64,-1.216 l 1.984,-1.92 q -1.952,-1.12 -3.136,-2.208 -1.152,-1.12 -1.856,-2.848 -0.704,-1.728 -0.704,-4.0639999 0,-4.032 2.624,-6.88 2.624,-2.88000005 6.304,-2.88000005 3.68,0 6.304,2.84800005 2.624,2.848 2.624,6.848 0,3.8719999 -2.56,6.7519999 -2.56,2.88 -6.72,2.88 -0.32,0 -0.576,-0.032 l -0.128,0.768 q 0.96,-0.16 1.632,-0.16 1.024,0 2.304,0.32 1.28,0.32 1.696,0.32 0.672,0 1.44,-0.512 0.768,-0.512 1.216,-0.512 0.704,0 1.152,0.448 0.48,0.48 0.48,1.152 0,1.056 -1.536,1.824 -1.536,0.8 -2.72,0.8 -0.864,0 -1.984,-0.448 -1.088,-0.448 -2.016,-0.448 z m 3.424,-17.6959999 q -1.664,-1.952 -4.032,-1.952 -2.368,0 -4.064,1.952 -1.664,1.92 -1.664,4.6399999 0,2.688 1.696,4.64 1.696,1.952 4.032,1.952 2.336,0 4.032,-1.92 1.696,-1.92 1.696,-4.576 0,-2.7839999 -1.696,-4.7359999 z" />
    <path
       id="path88"
       style="font-style:normal;font-variant:normal;font-weight:bold;font-stretch:normal;font-size:32px;font-family:'Tlwg Typewriter';-inkscape-font-specification:'Tlwg Typewriter Bold';fill:#ff4400;fill-opacity:1"
       d="m 38.100734,19.327671 q -2.112,0 -2.112,-1.6 0,-1.6 2.112,-1.6 h 0.736 l -0.736,-1.856 h -7.616 l -0.736,1.856 h 0.736 q 2.112,0 2.112,1.6 0,1.6 -2.112,1.6 h -4.256 q -2.112,0 -2.112,-1.6 0,-1.6 2.144,-1.6 l 4.96,-12.2559999 h -2.016 q -2.144,0 -2.144,-1.6 0,-1.60000005 2.144,-1.60000005 h 6.912 l 6.368,15.45599995 q 2.176,0 2.176,1.6 0,1.6 -2.112,1.6 z m -1.312,-8.256 -2.496,-6.1439999 -2.528,6.1439999 z" />
    <path
       id="path90"
       style="font-style:normal;font-variant:normal;font-weight:bold;font-stretch:normal;font-size:32px;font-family:'Tlwg Typewriter';-inkscape-font-specification:'Tlwg Typewriter Bold';fill:#ff4400;fill-opacity:1"
       d="m 47.144234,19.327671 q -2.112,0 -2.112,-1.6 0,-1.6 2.112,-1.6 h 1.824 V 3.8716711 h -1.824 q -2.112,0 -2.112,-1.6 0,-1.60000005 2.112,-1.60000005 h 6.848 q 2.112,0 2.112,1.60000005 0,1.6 -2.112,1.6 h -1.824 V 16.127671 h 6.88 v -2.944 q 0,-2.144 1.6,-2.144 1.6,0 1.6,2.144 v 6.144 z" />
    <path
       id="path92"
       style="font-style:normal;font-variant:normal;font-weight:bold;font-stretch:normal;font-size:32px;font-family:'Tlwg Typewriter';-inkscape-font-specification:'Tlwg Typewriter Bold';fill:#ff4400;fill-opacity:1"
       d="m 76.475734,19.327671 q -2.112,0 -2.112,-1.6 0,-1.6 2.112,-1.6 h 0.736 l -0.736,-1.856 h -7.616 l -0.736,1.856 h 0.736 q 2.112,0 2.112,1.6 0,1.6 -2.112,1.6 h -4.256 q -2.112,0 -2.112,-1.6 0,-1.6 2.144,-1.6 l 4.96,-12.2559999 h -2.016 q -2.144,0 -2.144,-1.6 0,-1.60000005 2.144,-1.60000005 h 6.912 l 6.368,15.45599995 q 2.176,0 2.176,1.6 0,1.6 -2.112,1.6 z m -1.312,-8.256 -2.496,-6.1439999 -2.528,6.1439999 z" />
    <path
       id="path94"
       style="font-style:normal;font-variant:normal;font-weight:bold;font-stretch:normal;font-size:32px;font-family:'Tlwg Typewriter';-inkscape-font-specification:'Tlwg Typewriter Bold';fill:#ff4400;fill-opacity:1"
       d="m 96.015234,19.327671 q -2.112,0 -2.112,-1.6 0,-1.6 2.112,-1.6 h 1.12 V 6.8796711 l -3.552,8.0319999 h -2.912 l -3.776,-8.0319999 v 9.2479999 h 1.12 q 2.112,0 2.112,1.6 0,1.6 -2.112,1.6 h -4.128 q -2.144,0 -2.144,-1.6 0,-1.6 1.952,-1.6 V 3.8716711 q -1.664,-0.16 -1.664,-1.632 0,-0.736 0.512,-1.152 0.544,-0.41600005 1.472,-0.41600005 h 3.616 l 4.416,9.50399995 4.32,-9.50399995 h 3.52 q 2.111996,0 2.111996,1.60000005 0,1.44 -1.664,1.6 V 16.127671 q 1.952,0 1.952,1.6 0,1.6 -2.112,1.6 z" />
  </g>
</svg>
