<?xml version="1.0" encoding="UTF-8" standalone="no"?>
<svg
   xmlns:dc="http://purl.org/dc/elements/1.1/"
   xmlns:cc="http://creativecommons.org/ns#"
   xmlns:rdf="http://www.w3.org/1999/02/22-rdf-syntax-ns#"
   xmlns:svg="http://www.w3.org/2000/svg"
   xmlns="http://www.w3.org/2000/svg"
   xmlns:sodipodi="http://sodipodi.sourceforge.net/DTD/sodipodi-0.dtd"
   xmlns:inkscape="http://www.inkscape.org/namespaces/inkscape"
   version="1.0"
   width="700.000000pt"
   height="700.000000pt"
   viewBox="0 0 700.000000 700.000000"
   preserveAspectRatio="xMidYMid meet"
   id="svg5420"
   sodipodi:docname="safari-pinned-tab.svg"
   inkscape:export-filename="/home/shahidh/workspace/wisdom/qalam.blog/site/static/img/apple-touch-icon.png"
   inkscape:export-xdpi="18.514286"
   inkscape:export-ydpi="18.514286"
   inkscape:version="0.92.3 (2405546, 2018-03-11)">
  <defs
     id="defs5424" />
  <sodipodi:namedview
     pagecolor="#ffffff"
     bordercolor="#666666"
     borderopacity="1"
     objecttolerance="10"
     gridtolerance="10"
     guidetolerance="10"
     inkscape:pageopacity="0"
     inkscape:pageshadow="2"
     inkscape:window-width="1920"
     inkscape:window-height="1047"
     id="namedview5422"
     showgrid="false"
     inkscape:zoom="0.50571429"
     inkscape:cx="816.61546"
     inkscape:cy="427.25987"
     inkscape:window-x="0"
     inkscape:window-y="33"
     inkscape:window-maximized="1"
     inkscape:current-layer="svg5420" />
  <metadata
     id="metadata5414">
Created by potrace 1.11, written by Peter Selinger 2001-2013
<rdf:RDF>
  <cc:Work
     rdf:about="">
    <dc:format>image/svg+xml</dc:format>
    <dc:type
       rdf:resource="http://purl.org/dc/dcmitype/StillImage" />
  </cc:Work>
</rdf:RDF>
</metadata>
  <g
     transform="matrix(2.0888931,0,0,2.0888931,-3.6330752,0.41167493)"
     id="g5590"
     style="fill:#ff4400;fill-opacity:1">
    <path
       inkscape:connector-curvature="0"
       style="fill:#ff4400;fill-opacity:1"
       d="m 35.243,94.888 c 12.885,19.483 24.198,42.637 25.982,46.618 0.511,1.148 1.316,3.856 2.219,7.169 6.282,-8.877 13.946,-16.214 23.105,-21.599 13.07,-7.68 28.093,-10.845 44.312,-10.084 -3.916,-6.217 -7.479,-12.619 -9.192,-17.601 C 117.269,86.615 101.321,33.861 91.993,11.338 82.67,-11.185 47.159,4.844 26.523,16.576 5.887,28.308 4.73,42.765 6.829,46.747 8.923,50.728 22.358,75.405 35.243,94.888 Z"
       id="path5584" />
    <path
       inkscape:connector-curvature="0"
       style="fill:#ff4400;fill-opacity:1"
       d="m 114.37,167.478 c 27.446,-11.313 33.314,2.41 33.314,2.41 8.697,-8.066 2.622,-17.601 2.622,-17.601 0,0 2.197,-4.085 -1.36,-8.278 -2.176,-2.556 -9.187,-11.835 -15.322,-21.582 -16.219,-0.761 -31.242,2.404 -44.312,10.084 -9.159,5.385 -16.823,12.717 -23.105,21.599 2.235,8.186 5.102,20.179 5.847,22.268 1.05,2.932 3.769,6.913 6.288,7.435 2.513,0.522 3.981,2.932 3.981,2.932 3.247,6.598 13.407,7.016 13.407,7.016 0,0 -8.811,-14.97 18.64,-26.283 z"
       id="path5586" />
    <path
       inkscape:connector-curvature="0"
       style="fill:#ff4400;fill-opacity:1"
       d="m 319.156,225.659 c -8.409,-6.576 -19.662,-9.736 -28.631,-15.556 -23.187,-15.044 6.848,-28.903 16.79,-37.867 16.883,-15.219 21.316,-32.754 14.326,-54.048 -2.186,-6.663 -6.924,-13.69 -4.737,-7.033 11.95,36.42 -26.026,53.825 -45.313,74.189 -7.103,7.5 -6.124,15.632 1.256,23.116 14.278,14.479 57.23,26.7 30.606,49.207 -18.661,15.773 -47.624,17.187 -68.309,30.508 -2.796,1.8 -3.122,6.641 -0.31,8.61 20.315,14.207 48.44,10.786 68.456,23.687 -34.527,10.389 -70.746,3.612 -106.252,0.359 0.141,-1.006 0.016,-1.86 0.016,-1.86 -4.514,-27.658 -4.971,-33.657 -2.877,-47.488 2.094,-13.826 0,-15.088 0,-15.088 -21.37,-29.333 -47.331,-84.73 -47.331,-84.73 -3.459,-5.76 -17.182,-8.202 -34.152,-0.631 -17.601,7.859 -16.344,18.645 -16.344,18.645 l 29.86,88.026 c 1.05,2.828 5.869,4.188 5.869,4.188 27.973,8.066 50.774,36.333 53.814,40.733 3.04,4.4 5.238,2.725 5.238,2.725 l -32.623,-73.063 c -2.491,-0.571 -5.031,-2.736 -6.527,-5.945 -2.165,-4.65 -1.305,-9.633 1.92,-11.134 3.225,-1.501 7.593,1.05 9.758,5.7 1.632,3.503 1.539,7.19 0.022,9.442 l 31.101,70.273 c -0.228,-0.022 -0.457,-0.044 -0.685,-0.065 -6.94,-0.598 0.343,8.262 19.842,10.71 43.458,5.455 60.455,5.118 102.336,-3.753 4.297,-0.908 4.373,-6.396 1.55,-9.274 -18.547,-18.928 -45.704,-14.892 -67.939,-25.232 28.287,-11.91 105.892,-38.709 69.27,-67.351 z"
       id="path5588" />
  </g>
  <path
     style="fill:#ff4400;fill-opacity:1;stroke-width:1.97740114"
     d="m 171.35651,409.8729 c -0.74317,-0.74316 -1.35122,-2.88364 -1.35122,-4.7566 0,-9.65464 -44.4908,-91.49176 -79.917527,-147.00162 C 67.116401,222.12104 50.960369,195.04152 28.947451,155.63591 15.373021,131.33615 13.792617,127.41366 13.809917,118.06529 13.836132,103.89972 20.807167,89.603392 35.003021,74.602089 49.069843,59.737138 67.060456,47.757358 99.076259,31.936324 174.00431,-5.0903643 227.38692,-7.8128049 246.11574,24.437511 c 8.92931,15.375935 26.66723,66.008693 72.09282,205.788499 15.84786,48.7657 21.91931,64.7361 29.69402,78.10734 l 9.77295,16.80791 -24.13173,1.26843 c -26.52526,1.39422 -39.33974,3.55629 -58.73625,9.90998 -32.17234,10.53866 -66.44766,33.2012 -87.35342,57.75728 -6.60929,7.76333 -12.63103,14.79737 -13.38164,15.63118 -0.75061,0.83379 -1.9728,0.90794 -2.71598,0.16471 z"
     id="path6210"
     inkscape:connector-curvature="0"
     transform="scale(0.75000002)" />
  <path
     style="fill:#ff4400;fill-opacity:1;stroke-width:1.97740114"
     d="m 248.9803,536.9902 c -10.8171,-2.91696 -19.80524,-8.98111 -23.47507,-15.83825 -1.48037,-2.7661 -6.46667,-6.80377 -11.08066,-8.9726 -11.94324,-5.61399 -16.12072,-13.82302 -25.69203,-50.48659 l -8.38246,-32.10962 11.29878,-13.69151 c 39.16757,-47.46203 96.24017,-73.60766 161.26603,-73.87787 l 13.84181,-0.0575 5.92833,9.38912 c 3.2606,5.16402 13.25737,19.43239 22.21505,31.70749 19.86335,27.2196 20.94258,29.18191 19.65733,35.7422 -0.56208,2.86895 0.33228,10.1289 1.98746,16.13323 3.41549,12.39004 1.61734,23.34703 -5.26793,32.10025 l -3.9127,4.97418 -7.04026,-6.63982 c -9.39717,-8.86267 -19.73253,-11.38509 -41.47688,-10.12275 -19.9838,1.16015 -38.07571,6.65915 -60.25658,18.31486 -31.61085,16.61104 -47.34123,40.83555 -39.65112,61.06206 2.17562,5.72232 2.32703,5.68623 -9.9591,2.37314 z"
     id="path6212"
     inkscape:connector-curvature="0"
     transform="scale(0.75000002)" />
  <path
     style="fill:#ff4400;fill-opacity:1;stroke-width:1.97740114"
     d="m 677.20868,930.99306 c -35.14872,-2.22204 -93.03611,-9.1348 -107.04064,-12.78251 -14.72754,-3.83604 -33.19437,-12.10953 -37.3988,-16.75537 -3.51889,-3.88834 -2.42246,-7.81109 2.18326,-7.81109 1.56717,0 2.8494,-0.43109 2.8494,-0.95797 0,-0.52688 -19.07547,-44.04703 -42.38994,-96.71145 -41.72236,-94.24545 -42.37262,-95.92157 -41.28858,-106.42489 1.86437,-18.06398 -9.98261,-35.17123 -24.35651,-35.17123 -10.10985,0 -14.56384,5.65559 -14.56384,18.4929 0,12.07703 5.06715,21.43963 15.14095,27.97603 5.25895,3.41226 12.24863,17.75212 50.95133,104.53045 24.67093,55.31661 44.42989,101.00199 43.90882,101.52307 -1.92952,1.92953 -6.96314,-2.82046 -21.38262,-20.17781 -38.91277,-46.84102 -90.80277,-85.40859 -134.09871,-99.6697 -7.06921,-2.32851 -14.81785,-5.77065 -17.2192,-7.6492 -3.30677,-2.58688 -14.46125,-33.21838 -45.97457,-126.25153 -22.88467,-67.55977 -41.60014,-125.39875 -41.58993,-128.53107 0.029,-8.88516 10.5401,-25.16249 21.39365,-33.12973 32.22679,-23.65664 80.60723,-33.36715 105.70693,-21.2166 8.75504,4.23825 9.54078,5.39012 24.15752,35.41428 33.31654,68.43534 73.74726,141.30097 102.25207,184.28213 11.38173,17.16201 18.08595,29.30351 18.77381,33.9997 0.58845,4.01762 -0.50007,19.97683 -2.41894,35.4649 -4.18697,33.79493 -3.38308,54.14732 4.01215,101.57734 2.88245,18.4869 5.39061,33.73415 5.57368,33.88277 0.18311,0.1487 28.80741,3.2232 63.60967,6.83241 52.38412,5.43254 71.44637,6.5766 110.73446,6.64597 28.8599,0.051 54.43179,-0.92058 65.25424,-2.47917 21.37476,-3.07828 52.71585,-10.08267 55.11677,-12.318 2.21521,-2.06241 -18.12477,-12.3431 -36.74013,-18.56999 -7.93201,-2.65328 -33.99811,-9.22901 -57.92466,-14.61276 -76.61803,-17.23987 -107.73311,-33.60866 -97.74195,-51.41935 4.77926,-8.51973 37.52352,-23.53681 90.66983,-41.58275 63.59249,-21.59292 90.1353,-34.81519 110.23203,-54.91193 21.05966,-21.05964 22.04221,-42.14965 2.92378,-62.75795 -8.17612,-8.8133 -24.66264,-20.89761 -53.8718,-39.48706 -32.24524,-20.52169 -43.60539,-30.17888 -51.31722,-43.62449 -6.996,-12.1976 -7.745,-25.34068 -2.07395,-36.39356 4.5353,-8.83932 26.39094,-30.15094 58.52391,-57.06715 45.67532,-38.25998 69.33154,-67.14105 78.31195,-95.60831 4.75062,-15.05919 5.56579,-39.55628 1.8339,-55.11251 -5.98769,-24.9595 4.87032,-5.77971 12.16966,21.4967 5.12845,19.16415 5.5491,49.44595 0.9305,66.98574 -8.14479,30.93118 -29.53409,58.08152 -68.45256,86.88979 -39.49533,29.23527 -50.83835,44.69445 -45.65375,62.22062 4.35011,14.70525 16.79204,24.30562 57.83323,44.62488 29.64558,14.67736 39.16481,20.43571 49.61978,30.01578 21.38894,19.59907 26.02541,35.90917 16.20482,57.00505 -14.26657,30.64646 -69.95758,65.32509 -172.00657,107.10797 -21.75141,8.90588 -39.96717,16.59113 -40.47946,17.0783 -3.55261,3.37845 27.74522,13.04814 75.08398,23.19774 22.2952,4.78015 46.32062,10.64236 53.38983,13.02708 19.78768,6.67518 39.09184,17.62211 51.7636,29.35391 10.1117,9.36165 11.51324,11.56669 11.51324,18.11373 0,4.09996 -1.24337,8.48639 -2.76306,9.74761 -6.43716,5.34237 -88.25456,18.9145 -132.04961,21.9048 -31.33344,2.13943 -34.87811,2.12925 -71.82575,-0.20652 z"
     id="path6214"
     inkscape:connector-curvature="0"
     transform="scale(0.75000002)" />
  <path
     style="fill:#ff4400;fill-opacity:1;stroke-width:1.97740114"
     d="m 675.03925,931.00283 c -34.39693,-2.3312 -90.60944,-9.21536 -105.59893,-12.93234 -13.31082,-3.3007 -30.06516,-10.75686 -36.08757,-16.06 -4.71278,-4.14989 -4.35701,-8.3664 0.70591,-8.3664 2.53708,0 3.78342,-0.96659 3.1871,-2.47175 -0.53859,-1.35947 -19.74904,-44.95452 -42.68988,-96.87789 -39.38022,-89.13159 -41.64237,-94.90408 -40.48898,-103.31895 2.42978,-17.72722 -10.24034,-36.59695 -24.57312,-36.59695 -10.70372,0 -15.74056,8.89238 -13.69121,24.17142 1.25417,9.35052 6.06179,16.66037 14.66487,22.29751 5.16995,3.38758 12.46594,18.37844 50.86977,104.52054 24.65879,55.31115 44.40335,100.99653 43.87683,101.52308 -1.9391,1.93909 -6.94801,-2.7934 -21.91573,-20.70632 -27.34651,-32.72747 -65.01496,-64.70239 -97.86613,-83.07381 -7.09286,-3.96654 -21.78064,-10.58099 -32.6395,-14.69875 -10.85887,-4.11776 -20.84883,-8.5976 -22.19992,-9.95517 -3.59295,-3.61022 -85.6522,-246.59677 -85.64295,-253.59827 0.0121,-9.126 10.40894,-25.31116 21.47929,-33.43755 32.4664,-23.83253 83.69007,-33.81696 106.81477,-20.82015 7.12691,4.00555 9.62946,8.03282 28.66592,46.13109 37.62116,75.29244 71.71104,136.10174 100.99858,180.16051 7.2295,10.8757 13.66015,22.2753 14.29032,25.33244 0.63018,3.05714 -0.49073,20.62952 -2.49093,39.04972 -4.02383,37.05616 -3.24729,52.91911 5.23019,106.8415 l 4.21147,26.78767 33.9025,3.50101 c 104.61836,10.80363 141.32919,12.66102 182.48988,9.2331 27.4945,-2.28979 70.17917,-9.75448 76.72489,-13.41764 2.74809,-1.5379 1.31273,-2.93104 -8.16412,-7.92404 -16.87562,-8.8911 -36.57967,-14.90942 -82.69507,-25.25803 -43.00771,-9.6512 -61.35166,-15.35704 -80.80787,-25.13507 -20.7407,-10.42355 -26.13001,-20.37793 -16.33544,-30.17249 7.9568,-7.9568 39.817,-21.9078 86.27782,-37.77947 65.21871,-22.27966 90.53423,-34.90612 111.47635,-55.60041 23.01109,-22.73879 22.53933,-45.49771 -1.3915,-67.12826 -5.62434,-5.08372 -26.69167,-20.10297 -46.81628,-33.37612 -20.1246,-13.27314 -39.88479,-27.77972 -43.91153,-32.23684 -15.28539,-16.9191 -19.38454,-34.37751 -11.597,-49.3919 4.64865,-8.96259 23.86408,-27.75645 60.4603,-59.13385 44.14299,-37.84795 63.1615,-60.14276 73.87739,-86.60416 5.89232,-14.55027 7.90401,-42.45432 4.35952,-60.47066 -1.30989,-6.65803 -1.88569,-12.60142 -1.27958,-13.20754 1.71249,-1.71249 8.75789,15.55933 13.28503,32.56824 5.37444,20.19234 5.77271,51.96251 0.86217,68.77703 -8.97169,30.72066 -29.80626,57.05185 -67.37571,85.15096 -46.66855,34.90454 -56.10006,52.17315 -40.47774,74.11267 6.09081,8.55374 17.30661,15.61178 54.87252,34.53096 48.52476,24.43832 67.69896,43.24849 67.64804,66.36362 -0.0821,37.28435 -53.35079,75.60779 -174.46572,125.5171 -23.64333,9.74299 -42.99715,18.31797 -43.00848,19.0555 -0.0403,2.6251 23.16227,10.01318 52.38053,16.67882 63.57418,14.50335 73.63727,17.13337 87.44079,22.85305 16.82069,6.96986 34.20191,17.94988 44.55073,28.14346 6.00626,5.91614 7.41526,8.74286 7.41526,14.8763 0,4.16477 -1.24337,8.60421 -2.76306,9.86543 -6.2862,5.21708 -86.96897,18.71308 -130.73574,21.86848 -30.75403,2.21724 -40.53404,2.19642 -75.30905,-0.16037 z"
     id="path6216"
     inkscape:connector-curvature="0"
     transform="scale(0.75000002)" />
</svg>
